# xmcd
#
# Track frame offsets: 
#        150
#        24676
#        41246
#        71910
#        110677
#        139307
#        165582
#        202163
#        235877
#
# Disc length: 4210 seconds
#
# Revision: 1
# Processed by: cddbd v1.5.2PL0 Copyright (c) Steve Scherf et al.
# Submitted via: ExactAudioCopyFreeDBPlugin 1.0
#
DISCID=8c107009
DTITLE=Kornet - Gladas Kapell - Jukka Tolonen Band - Proggladan-Box B 
DTITLE=(CD 7: 1976 and 1977)
DYEAR=2013
DGENRE=Swedish Progg
TTITLE0=Kornet - Sju Hungriga Ar
TTITLE1=Kornet - Skriet I Vildmarken
TTITLE2=Kornet - Tretaktaren
TTITLE3=Gladas Kapell - Rio Dejavu
TTITLE4=Gladas Kapell - Lösnäsor At Konstaplarna
TTITLE5=Gladas Kapell - Ockhams Rakkniv
TTITLE6=Jukka Tolonen Band - Passenger To Paramaribo
TTITLE7=Jukka Tolonen Band - Ide- Och Lärdomshistorien Och Lilla Lule 
TTITLE7=Alv
TTITLE8=Jukka Tolonen Band - Paranoida Ida
EXTD=
EXTT0=
EXTT1=
EXTT2=
EXTT3=
EXTT4=
EXTT5=
EXTT6=
EXTT7=
EXTT8=
PLAYORDER=
